<svg xmlns="http://www.w3.org/2000/svg" version="1.1" xmlns:xlink="http://www.w3.org/1999/xlink" xmlns:svgjs="http://svgjs.dev/svgjs" width="1500" height="227" viewBox="0 0 1500 227"><g transform="matrix(1,0,0,1,-0.9090909090909918,0.8638630306974875)"><svg viewBox="0 0 396 60" data-background-color="#ffffff" preserveAspectRatio="xMidYMid meet" height="227" width="1500" xmlns="http://www.w3.org/2000/svg" xmlns:xlink="http://www.w3.org/1999/xlink"><g id="tight-bounds" transform="matrix(1,0,0,1,0.2400000000000091,-0.2283338407129918)"><svg viewBox="0 0 395.52 60.456667681426005" height="60.456667681426005" width="395.52"><g><svg viewBox="0 0 506.5502612191658 77.42804613285458" height="60.456667681426005" width="395.52"><g transform="matrix(1,0,0,1,111.03026121916582,10.70098177378815)"><svg viewBox="0 0 395.52 56.026082585278274" height="56.026082585278274" width="395.52"><g id="textblocktransform"><svg viewBox="0 0 395.52 56.026082585278274" height="56.026082585278274" width="395.52" id="textblock"><g><svg viewBox="0 0 395.52 56.026082585278274" height="56.026082585278274" width="395.52"><g transform="matrix(1,0,0,1,0,0)"><svg width="395.52" viewBox="5.35 -38.6 278.47999999999996 39.45" height="56.026082585278274" data-palette-color="#e2dcc8"><path d="M35.35-37.9L40.7-37.9 40.7 0 35.85 0 35.85-30.55 24.25-14.4 21.7-14.4 10.2-30.55 10.2 0 5.35 0 5.35-37.9 10.65-37.9 23-20.6 35.35-37.9ZM66.95 0.85Q61.1 0.85 57.02-1.73 52.95-4.3 50.9-8.78 48.85-13.25 48.85-18.9L48.85-18.9Q48.85-24.45 50.9-28.9 52.95-33.35 57.02-35.98 61.1-38.6 66.95-38.6L66.95-38.6Q72.75-38.6 76.8-35.98 80.85-33.35 82.92-28.88 85-24.4 85-18.9L85-18.9Q85-13.25 82.95-8.78 80.9-4.3 76.82-1.73 72.75 0.85 66.95 0.85L66.95 0.85ZM66.95-3.4Q71.05-3.4 74-5.45 76.95-7.5 78.47-11.05 80-14.6 80-19.05L80-19.05Q80-23.35 78.45-26.83 76.9-30.3 73.95-32.33 71-34.35 66.95-34.35L66.95-34.35Q62.75-34.35 59.8-32.3 56.85-30.25 55.35-26.75 53.85-23.25 53.85-18.9L53.85-18.9Q53.85-14.45 55.35-10.95 56.85-7.45 59.8-5.43 62.75-3.4 66.95-3.4L66.95-3.4ZM118.4-37.9L123.45-37.9 109.2 0.45 103.8 0.45 89.5-37.9 94.6-37.9 106.5-5.6 118.4-37.9ZM130.49 0L130.49-37.9 135.34-37.9 135.34 0 130.49 0ZM150.89-4.2L169.24-4.2 169.24 0 146.04 0 146.04-37.9 168.99-37.9 168.99-33.7 150.89-33.7 150.89-21.15 166.49-21.15 166.49-16.95 150.89-16.95 150.89-4.2ZM213.54 0L209.44-11.05 193.64-11.05 189.59 0 184.59 0 198.84-38.35 204.24-38.35 218.54 0 213.54 0ZM195.29-15.4L207.79-15.4 201.54-32.3 195.29-15.4ZM238.43-37.9Q250.83-37.9 250.83-26.6L250.83-26.6Q250.83-21.1 247.73-18.23 244.63-15.35 238.43-15.35L238.43-15.35 230.03-15.35 230.03 0 225.18 0 225.18-37.9 238.43-37.9ZM245.88-26.6Q245.88-30.3 244.03-31.98 242.18-33.65 238.43-33.65L238.43-33.65 230.03-33.65 230.03-19.65 238.43-19.65Q245.83-19.65 245.88-26.6L245.88-26.6ZM271.43-37.9Q283.83-37.9 283.83-26.6L283.83-26.6Q283.83-21.1 280.73-18.23 277.63-15.35 271.43-15.35L271.43-15.35 263.03-15.35 263.03 0 258.18 0 258.18-37.9 271.43-37.9ZM278.88-26.6Q278.88-30.3 277.03-31.98 275.18-33.65 271.43-33.65L271.43-33.65 263.03-33.65 263.03-19.65 271.43-19.65Q278.83-19.65 278.88-26.6L278.88-26.6Z" opacity="1" transform="matrix(1,0,0,1,0,0)" fill="#e2dcc8" class="wordmark-text-0" data-fill-palette-color="primary" id="text-0"></path></svg></g></svg></g></svg></g></svg></g><g><svg viewBox="0 0 97.80384774676367 77.42804613285458" height="77.42804613285458" width="97.80384774676367"><g><svg xmlns="http://www.w3.org/2000/svg" xmlns:xlink="http://www.w3.org/1999/xlink" version="1.1" x="0" y="0" viewBox="0 10 96 76" enable-background="new 0 0 96 96" xml:space="preserve" height="77.42804613285458" width="97.80384774676367" class="icon-icon-0" data-fill-palette-color="accent" id="icon-0"><path d="M40 48.392L58 38 40 27.608V48.392z" fill="#e2dcc8" data-fill-palette-color="accent"></path><path d="M94 10H2c-1.104 0-2 0.9-2 2v52c0 1.1 0.896 2 2 2h35.56c-0.9 3.04-6.06 9.712-19.56 9.712-1.104 0-2 0.899-2 2V84c0 1.1 0.896 2 2 2h60c1.1 0 2-0.9 2-2v-6.288c0-1.101-0.9-2-2-2-13.5 0-18.664-6.672-19.564-9.712H94c1.1 0 2-0.9 2-2V12C96 10.9 95.1 10 94 10zM63 39.736l-24 13.86c-0.308 0.172-0.656 0.26-1 0.26s-0.692-0.088-1-0.26c-0.62-0.359-1-1.023-1-1.74V24.14c0-0.716 0.38-1.376 1-1.732 0.616-0.36 1.384-0.36 2 0L63 36.26c0.616 0.36 1 1.021 1 1.74C64 38.716 63.616 39.376 63 39.736z" fill="#e2dcc8" data-fill-palette-color="accent"></path></svg></g></svg></g></svg></g><defs></defs></svg><rect width="395.52" height="60.456667681426005" fill="none" stroke="none" visibility="hidden"></rect></g></svg></g></svg>